<svg xmlns="http://www.w3.org/2000/svg" fill="#12d812" width="305.002" height="305.002" xmlns:v="https://vecta.io/nano"><path d="M152.502.001C68.412.001 0 68.412 0 152.501s68.412 152.5 152.502 152.5 152.5-68.411 152.5-152.5S236.591.001 152.502.001zm0 280C82.197 280.001 25 222.806 25 152.501s57.197-127.5 127.502-127.5 127.5 57.196 127.5 127.5-57.196 127.5-127.5 127.5zM218.473 93.97l-90.546 90.547-41.398-41.398c-4.882-4.881-12.796-4.881-17.678 0s-4.881 12.796 0 17.678l50.237 50.237c2.441 2.44 5.64 3.661 8.839 3.661s6.398-1.221 8.839-3.661l99.385-99.385c4.881-4.882 4.881-12.796 0-17.678s-12.797-4.882-17.678-.001z"/></svg>
