<svg xmlns="http://www.w3.org/2000/svg" width="24" height="22" fill="none" xmlns:v="https://vecta.io/nano"><path d="M19.334 0H4.666C4.5 0 4.341.086 4.25.232L.083 6.557a.53.53 0 0 0 .029.61l11.5 14.643a.49.49 0 0 0 .775 0l11.5-14.643a.53.53 0 0 0 .029-.61L19.754.232A.5.5 0 0 0 19.334 0zm-.804 2.062l2.638 4.125h-2.85l-2.154-4.125h2.367zm-8.421 0h3.779l2.154 4.125H7.958l2.15-4.125zm-4.638 0h2.367L5.683 6.187h-2.85l2.638-4.125zM3.679 8.25h2.142l2.846 6.875L3.679 8.25zm4.288 0h8.067L12 18.703 7.967 8.25zm7.367 6.875l2.842-6.875h2.142l-4.984 6.875z" fill="#BD4949"/></svg>
