<svg width="26" height="30" viewBox="0 0 26 30" fill="none" xmlns="http://www.w3.org/2000/svg">
<path d="M8.6665 16.3333V5C8.6665 4.46957 8.87722 3.96086 9.25229 3.58579C9.62736 3.21071 10.1361 3 10.6665 3C11.1969 3 11.7056 3.21071 12.0807 3.58579C12.4558 3.96086 12.6665 4.46957 12.6665 5V15M12.6665 14.3333V11.6667C12.6665 11.1362 12.8772 10.6275 13.2523 10.2525C13.6274 9.87738 14.1361 9.66667 14.6665 9.66667C15.1969 9.66667 15.7056 9.87738 16.0807 10.2525C16.4558 10.6275 16.6665 11.1362 16.6665 11.6667V15M16.6665 13C16.6665 12.4696 16.8772 11.9609 17.2523 11.5858C17.6274 11.2107 18.1361 11 18.6665 11C19.1969 11 19.7056 11.2107 20.0807 11.5858C20.4558 11.9609 20.6665 12.4696 20.6665 13V15" stroke="#BD4949" stroke-width="2.3" stroke-linecap="round" stroke-linejoin="round"/>
<path d="M20.6667 14.3332C20.6667 13.8027 20.8774 13.294 21.2525 12.919C21.6275 12.5439 22.1362 12.3332 22.6667 12.3332C23.1971 12.3332 23.7058 12.5439 24.0809 12.919C24.4559 13.294 24.6667 13.8027 24.6667 14.3332V20.3332C24.6667 22.4549 23.8238 24.4897 22.3235 25.99C20.8232 27.4903 18.7884 28.3332 16.6667 28.3332H14H14.2773C12.9524 28.3334 11.6482 28.0046 10.4818 27.3762C9.31544 26.7479 8.32335 25.8397 7.59467 24.7332L7.33333 24.3332C6.91733 23.6945 5.45733 21.1492 2.952 16.6958C2.6966 16.2419 2.62838 15.7062 2.76184 15.2027C2.89531 14.6992 3.21993 14.2677 3.66667 13.9998C4.1425 13.7143 4.7001 13.596 5.25088 13.6636C5.80166 13.7313 6.31405 13.981 6.70667 14.3732L8.66667 16.3332M4.66667 2.99984L3.33333 1.6665M3.33333 8.33317H2M16.6667 2.99984L18 1.6665M18 6.99984H19.3333" stroke="#BD4949" stroke-width="2.3" stroke-linecap="round" stroke-linejoin="round"/>
</svg>
