<svg xmlns="http://www.w3.org/2000/svg" width="26" height="26" fill="none" xmlns:v="https://vecta.io/nano"><path d="M12.995 19.346l-6.5 2.488c-.3.112-.614-.117-.599-.437l.355-6.952a.46.46 0 0 0-.096-.3L1.777 8.733c-.203-.249-.081-.62.229-.706l6.723-1.808c.107-.03.198-.096.254-.188l3.798-5.83a.44.44 0 0 1 .741 0l3.799 5.835a.47.47 0 0 0 .254.188l6.723 1.808a.44.44 0 0 1 .229.706l-4.372 5.413a.46.46 0 0 0-.097.3l.355 6.952c.015.32-.3.549-.599.437l-6.5-2.488a.46.46 0 0 0-.32-.005z" fill="#ffffff"/><path d="M23.161 2.625L21.079.543c-.061-.061-.142-.086-.224-.076a.27.27 0 0 0-.198.132l-2.148 4.23a.26.26 0 0 0 .046.32.27.27 0 0 0 .188.076c.046 0 .091-.01.132-.036L23.1 3.047c.071-.041.122-.112.132-.198s-.015-.162-.071-.223zM7.572 4.834L5.424.604C5.383.533 5.312.482 5.226.472a.26.26 0 0 0-.223.076L2.92 2.63c-.061.061-.086.142-.076.223s.061.157.132.198L7.206 5.2a.25.25 0 0 0 .132.036.26.26 0 0 0 .188-.076.28.28 0 0 0 .046-.325zm7.144 20.821l-1.473-4.509c-.01-.046-.036-.086-.066-.117a.26.26 0 0 0-.188-.076c-.122 0-.223.081-.259.198l-1.473 4.509c-.02.081-.005.168.046.234s.127.107.213.107h2.94c.081 0 .162-.041.213-.107.056-.071.071-.157.046-.239h0z" fill="#ffffff"/></svg>